<svg xmlns="http://www.w3.org/2000/svg" width="16" height="16" fill="none" viewBox="0 0 16 16"><path fill="#fff" d="M14.355 4.741c.01.142.01.284.01.426 0 4.335-3.299 9.33-9.33 9.33A9.27 9.27 0 0 1 0 13.025c.264.03.518.04.792.04a6.57 6.57 0 0 0 4.07-1.4A3.285 3.285 0 0 1 1.798 9.39c.203.03.406.05.62.05.294 0 .588-.04.862-.111A3.28 3.28 0 0 1 .65 6.112V6.07c.437.244.945.396 1.483.416A3.28 3.28 0 0 1 .67 3.757c0-.61.162-1.168.447-1.656a9.32 9.32 0 0 0 6.761 3.432 3.7 3.7 0 0 1-.081-.751 3.28 3.28 0 0 1 3.28-3.28c.943 0 1.796.396 2.395 1.036a6.5 6.5 0 0 0 2.081-.792 3.27 3.27 0 0 1-1.441 1.807c.66-.07 1.3-.254 1.888-.507a7 7 0 0 1-1.645 1.695"/></svg>