<svg xmlns="http://www.w3.org/2000/svg" width="144" height="42" fill="none" viewBox="0 0 144 42"><path fill="#fff" d="M41.785 0H0v22.548c17.383-1.832 41.72-2.29 29.8 4.123-8.074 4.343-2.538 5.945 2.308 7.348 3.154.913 6.016 1.741 4.645 3.186-2.791 2.942 2.742 4.112 5.032 4.459zM66.04 31.185q-3.003 0-5.299-1.324-2.266-1.355-3.561-3.738-1.266-2.414-1.266-5.593 0-3.15 1.266-5.533 1.294-2.415 3.561-3.767 2.296-1.354 5.298-1.354 3.09-.001 5.357 1.354 2.296 1.353 3.561 3.767 1.266 2.385 1.266 5.533 0 3.18-1.266 5.593a9.33 9.33 0 0 1-3.561 3.738q-2.265 1.324-5.357 1.324m.029-2.178q2.266 0 3.973-1 1.736-1.03 2.678-2.915.972-1.913.972-4.562t-.971-4.532q-.942-1.914-2.679-2.914-1.708-1-3.973-1.001-2.267 0-4.003 1-1.707 1.002-2.679 2.915-.942 1.883-.942 4.532t.942 4.563q.971 1.883 2.679 2.913 1.736 1.002 4.003 1.001m13.52 1.825V10.229h3.532v17.836h9.183v2.767zm20.981.353q-1.824 0-3.031-.618t-1.796-1.648a4.43 4.43 0 0 1-.589-2.237q0-1.413.707-2.443.736-1.03 2.148-1.59 1.413-.588 3.474-.588h3.738q0-1.178-.324-1.943-.324-.795-1.001-1.177-.677-.383-1.736-.383-1.208 0-2.061.56-.853.53-1.06 1.648h-3.472q.175-1.59 1.06-2.708.882-1.148 2.324-1.766 1.472-.648 3.209-.648 2.09 0 3.561.736 1.472.707 2.237 2.06.795 1.325.795 3.209v9.183h-3.003l-.353-2.384a4.6 4.6 0 0 1-.765 1.089 5 5 0 0 1-1.03.883 5.3 5.3 0 0 1-1.354.56 6.2 6.2 0 0 1-1.678.205m.795-2.796q.853 0 1.501-.294a3.4 3.4 0 0 0 1.148-.883 4.4 4.4 0 0 0 .765-1.295 6.2 6.2 0 0 0 .353-1.501v-.06h-3.267q-1.03 0-1.707.266-.677.235-.971.706a2 2 0 0 0-.295 1.089q0 .618.295 1.06.294.441.853.677.56.235 1.325.235m20.727 2.443-6.563-8.124 5.886-6.71h4.209l-7.329 8.153v-2.738l8.212 9.419zm-9.566 0V9.64h3.532v21.192zm22.123.353q-2.207 0-3.885-.942a6.8 6.8 0 0 1-2.619-2.707q-.942-1.737-.942-4.003 0-2.355.912-4.121a7 7 0 0 1 2.62-2.767q1.707-1 3.944-1 2.178 0 3.797.97a6.7 6.7 0 0 1 2.501 2.62q.883 1.62.883 3.65v.648q0 .352-.058.735h-12.068v-2.266h8.565q-.058-1.62-1.089-2.531-1.03-.942-2.561-.942-1.089 0-2.001.5t-1.442 1.501q-.53.972-.53 2.473v.853q0 1.384.5 2.384.53 1.002 1.413 1.531.912.5 2.031.5 1.236 0 2.031-.53a3.13 3.13 0 0 0 1.206-1.412h3.591a6.9 6.9 0 0 1-1.354 2.502 6.9 6.9 0 0 1-2.325 1.736q-1.383.618-3.12.618"/></svg>